<?xml version="1.0" standalone="no"?>
<!DOCTYPE svg PUBLIC "-//W3C//DTD SVG 20010904//EN"
 "http://www.w3.org/TR/2001/REC-SVG-20010904/DTD/svg10.dtd">
<svg version="1.0" xmlns="http://www.w3.org/2000/svg"
 width="500.000000pt" height="500.000000pt" viewBox="0 0 500.000000 500.000000"
 preserveAspectRatio="xMidYMid meet">

<g transform="translate(0.000000,500.000000) scale(0.100000,-0.100000)"
fill="#000000" stroke="none">
<path d="M2320 4650 c-115 -38 -185 -87 -284 -200 -76 -87 -111 -236 -86 -363
18 -94 66 -223 105 -282 43 -64 109 -126 164 -154 23 -12 41 -26 41 -31 0 -15
-60 -119 -90 -157 -25 -33 -53 -42 -66 -22 -13 22 -209 161 -268 191 -110 55
-214 78 -363 78 -126 0 -133 -1 -144 -22 -11 -20 -4 -30 88 -117 107 -103 140
-146 196 -257 55 -109 72 -186 58 -255 -11 -53 -14 -56 -64 -81 -96 -47 -108
-46 -160 12 -46 51 -79 121 -91 195 -6 34 -15 44 -52 68 -57 34 -74 34 -106 0
-34 -38 -84 -116 -93 -145 -4 -12 -13 -30 -20 -38 -7 -8 -17 -31 -24 -50 -6
-19 -23 -52 -37 -73 -47 -71 -90 -312 -70 -391 6 -24 10 -26 66 -26 59 0 60 1
127 62 68 61 163 115 183 103 17 -10 11 -34 -10 -45 -33 -18 -180 -138 -243
-199 -139 -134 -278 -375 -341 -593 -16 -57 -116 -438 -116 -444 0 -11 26 0
88 38 l69 41 129 265 c71 146 153 302 182 346 59 89 158 196 212 228 19 12 59
36 87 55 78 51 124 68 135 51 5 -7 7 -56 5 -108 -4 -99 -33 -188 -70 -219 -22
-18 -95 -7 -159 24 -41 20 -54 22 -86 13 -20 -5 -42 -15 -48 -21 -13 -13 -45
-87 -129 -292 -58 -143 -133 -441 -115 -459 12 -12 99 46 180 120 131 119 232
180 389 235 52 18 54 18 97 0 63 -28 134 -97 134 -131 0 -23 -5 -29 -30 -34
-40 -8 -133 -96 -160 -152 -20 -39 -21 -58 -19 -241 3 -276 2 -267 19 -271 17
-3 24 7 91 130 45 84 140 203 184 232 17 11 9 -11 -37 -101 -49 -98 -57 -118
-46 -132 23 -29 31 -31 126 -31 157 0 320 -67 427 -175 74 -75 122 -168 166
-325 36 -130 51 -155 73 -125 8 11 17 41 20 66 7 51 82 239 121 304 46 75 136
155 228 201 68 35 188 64 263 64 73 0 114 13 114 36 0 8 -27 67 -61 130 -33
63 -56 114 -51 114 15 0 167 -152 194 -195 14 -22 44 -75 68 -117 31 -55 49
-78 63 -78 18 0 19 8 15 233 -4 266 -5 269 -99 371 -39 43 -62 59 -96 68 -25
6 -47 17 -50 23 -14 38 87 138 153 151 74 14 280 -85 426 -204 125 -103 193
-152 211 -152 9 0 17 2 17 5 0 3 -18 78 -40 166 -29 116 -61 209 -114 332 -40
95 -76 182 -80 193 -9 29 -34 48 -77 61 -31 9 -44 7 -85 -13 -32 -16 -67 -24
-101 -24 -46 0 -54 3 -73 29 -37 52 -50 108 -50 211 0 53 3 99 6 103 10 10 52
-11 152 -77 179 -118 229 -178 372 -446 201 -374 192 -361 257 -397 32 -18 66
-33 77 -33 16 0 18 5 12 39 -11 71 -145 460 -187 544 -23 45 -65 118 -94 162
-101 154 -157 211 -395 404 -30 24 -39 36 -31 44 18 18 109 -33 194 -107 72
-63 78 -66 127 -66 36 0 52 4 56 15 9 22 -14 205 -36 291 -42 162 -121 320
-209 416 l-48 53 -49 -31 c-41 -25 -50 -36 -55 -69 -4 -22 -18 -67 -30 -100
-13 -33 -24 -66 -25 -74 -2 -7 -15 -26 -30 -42 -21 -21 -37 -29 -63 -29 -45 0
-136 42 -150 69 -6 11 -11 55 -11 99 0 74 3 85 51 183 62 128 109 192 211 289
80 77 97 110 56 110 -13 1 -72 2 -133 3 -127 3 -227 -16 -329 -62 -61 -28
-137 -77 -144 -93 -2 -5 -9 -8 -15 -8 -7 0 -43 -25 -80 -56 -57 -46 -71 -53
-84 -43 -18 15 -103 159 -103 174 0 6 17 19 38 29 123 59 191 151 248 336 42
139 47 212 20 303 l-16 54 -67 -9 c-38 -5 -81 -17 -96 -27 l-28 -17 21 -26
c43 -55 70 -130 70 -196 0 -54 -4 -70 -31 -108 -43 -63 -186 -164 -231 -164
-7 0 -39 54 -70 121 -75 158 -82 158 -152 2 -60 -131 -63 -133 -161 -78 -64
36 -132 101 -159 153 -31 60 -11 163 49 253 29 43 34 57 27 78 -8 25 -13 26
-93 32 -76 5 -71 5 53 7 111 2 145 6 183 22 111 48 262 47 356 -1 32 -16 59
-19 179 -19 77 0 140 3 140 6 0 11 -43 77 -78 121 -46 57 -161 132 -247 160
-90 30 -251 31 -335 3z m181 -985 c2 -44 8 -86 14 -94 8 -12 7 -13 -5 -7 -8 4
-6 0 4 -8 11 -9 14 -16 8 -16 -7 0 -12 -4 -12 -10 0 -5 7 -10 15 -10 8 0 15
-9 15 -20 0 -11 -4 -20 -10 -20 -5 0 -10 5 -10 12 0 6 -3 8 -7 5 -3 -4 2 -16
12 -27 10 -11 18 -37 19 -62 5 -126 7 -142 14 -130 6 9 14 6 30 -13 12 -14 17
-25 12 -25 -6 0 -8 -11 -4 -25 5 -19 2 -25 -10 -25 -9 0 -18 -12 -22 -27 -4
-16 -13 -36 -21 -45 -13 -14 -13 -21 1 -50 8 -18 16 -44 18 -58 3 -25 11 -30
106 -72 40 -18 52 -28 50 -43 -3 -26 10 -47 25 -39 7 3 -6 -9 -28 -27 -22 -19
-76 -68 -121 -111 -44 -43 -83 -78 -86 -78 -3 0 -46 38 -94 85 -171 165 -254
202 -382 170 -84 -20 -200 -86 -259 -147 -23 -23 -71 -91 -106 -150 -60 -100
-82 -124 -70 -78 3 11 9 17 14 14 5 -2 11 7 15 22 4 16 2 29 -5 33 -6 4 -10
14 -8 22 2 8 2 11 0 7 -3 -5 -11 -8 -19 -8 -9 0 -13 -3 -10 -8 2 -4 -2 -16
-10 -27 -8 -10 -14 -13 -14 -7 0 7 -6 12 -14 12 -8 0 -16 7 -20 15 -3 8 -2 15
3 15 8 0 31 44 31 59 0 4 -9 17 -21 30 -19 20 -20 24 -5 40 9 10 13 21 9 24
-3 4 -2 7 4 7 5 0 15 -11 21 -24 8 -17 7 -23 -1 -22 -7 0 -13 -2 -14 -6 -2 -5
-2 -7 0 -6 1 1 12 -4 24 -10 17 -9 22 -9 27 4 3 8 2 12 -4 9 -6 -4 -10 9 -10
29 0 30 4 36 21 36 13 0 23 8 26 20 3 12 12 19 22 18 10 -2 15 3 15 14 -1 15
2 16 20 7 11 -6 29 -21 38 -33 18 -21 18 -21 18 9 0 23 -3 27 -10 15 -9 -14
-11 -13 -14 9 -2 15 -16 25 -16 12 0 -7 -5 -9 -11 -5 -8 5 -6 10 6 16 11 7 21
6 28 -1 6 -6 17 -11 25 -11 11 0 12 3 3 14 -17 20 -5 41 41 72 22 16 35 30 29
32 -6 2 -11 8 -11 14 0 6 8 7 18 4 15 -5 15 -5 1 6 -14 12 -14 15 3 32 10 11
21 16 25 12 4 -4 1 -11 -7 -16 -8 -5 -12 -12 -8 -15 10 -10 49 47 43 63 -4 12
-3 13 10 2 13 -11 19 -10 34 4 19 18 35 56 22 56 -16 0 -51 -32 -45 -42 4 -7
2 -8 -4 -4 -6 4 -11 23 -10 42 1 19 4 31 7 27 20 -27 131 10 131 43 0 15 9 17
52 14 16 -1 35 6 44 14 18 19 18 19 -24 7 -17 -5 -32 -6 -32 -1 0 11 26 20 56
20 13 0 24 4 24 8 0 5 10 8 23 6 12 -1 27 -3 32 -3 6 -1 -1 -10 -15 -21 -18
-14 -27 -16 -33 -7 -6 8 -7 5 -3 -7 4 -12 -1 -26 -14 -38 -11 -11 -18 -23 -15
-29 4 -5 -1 -9 -9 -9 -9 0 -16 -4 -16 -10 0 -17 39 -11 88 14 26 13 59 26 74
30 32 7 88 53 88 71 0 7 7 18 16 25 8 8 19 21 24 30 8 14 5 16 -16 12 l-25 -4
18 35 c10 19 20 31 22 25 2 -5 12 4 22 22 11 17 16 36 13 42 -4 6 -3 8 2 5 6
-3 11 14 12 38 2 49 10 104 18 116 2 5 7 41 9 81 2 40 4 75 5 78 0 2 4 0 9 -5
5 -6 11 -46 12 -90z m510 -445 c19 -11 26 -30 11 -30 -5 0 -19 9 -32 20 -24
21 -12 27 21 10z m-987 -13 c-4 -12 -55 -47 -67 -47 -17 0 9 38 31 47 37 15
42 15 36 0z m606 -7 c0 -5 -2 -10 -4 -10 -3 0 -8 5 -11 10 -3 6 -1 10 4 10 6
0 11 -4 11 -10z m325 -20 c3 -5 -4 -10 -16 -10 -19 0 -20 -2 -8 -17 13 -15 12
-15 -8 -2 -26 16 -29 25 -10 32 20 9 35 8 42 -3z m40 0 c3 -6 -1 -7 -9 -4 -18
7 -21 14 -7 14 6 0 13 -4 16 -10z m-1228 -47 c-3 -10 -5 -4 -5 12 0 17 2 24 5
18 2 -7 2 -21 0 -30z m1248 17 c-4 -6 -13 -9 -21 -6 -8 3 -11 0 -7 -10 7 -18
18 -18 37 1 13 14 15 13 13 -3 -1 -14 -9 -17 -41 -16 -23 1 -44 2 -48 3 -3 1
-4 10 -1 20 4 15 12 18 34 16 17 -3 29 1 29 7 0 6 3 9 6 5 3 -3 3 -11 -1 -17z
m62 -107 c27 -25 40 -43 31 -40 -24 9 -22 -2 4 -25 20 -17 24 -18 34 -4 11 16
29 23 20 8 -3 -5 1 -20 9 -35 7 -14 10 -29 7 -32 -4 -4 -2 -5 3 -4 11 3 85
-40 85 -49 0 -4 12 -8 26 -9 15 0 30 -7 35 -14 6 -11 12 -11 32 0 14 7 31 11
39 8 7 -3 2 -6 -11 -6 -24 -1 -24 -1 -5 -20 10 -10 21 -17 23 -15 5 5 26 -19
34 -38 3 -10 2 -18 -3 -18 -6 0 -10 -8 -10 -17 -1 -16 -2 -16 -16 2 -15 19
-15 19 -8 -10 8 -33 22 -55 36 -55 5 0 5 8 -1 18 -8 14 -6 19 5 19 7 0 14 -6
14 -14 0 -23 1 -28 12 -40 7 -9 7 -13 -3 -13 -10 0 -9 -4 3 -17 16 -15 16 -18
-4 -35 -20 -17 -22 -17 -35 0 -8 9 -11 11 -8 4 6 -11 3 -12 -15 -2 -12 6 -24
9 -27 6 -4 -3 -12 -1 -20 6 -11 9 -12 7 -4 -16 17 -44 6 -30 -42 52 -26 46
-68 100 -101 130 -59 54 -202 132 -241 132 -20 0 -23 4 -20 38 1 24 -4 47 -16
64 -11 14 -19 33 -19 42 0 9 -4 16 -10 16 -5 0 -10 3 -10 8 0 11 74 9 82 -3 5
-6 14 -3 25 8 9 9 18 17 20 17 1 0 24 -21 50 -47z m-1291 -91 c-17 -16 -18
-16 -5 5 7 12 15 20 18 17 3 -2 -3 -12 -13 -22z m1142 -39 c-10 -2 -26 -2 -35
0 -10 3 -2 5 17 5 19 0 27 -2 18 -5z m-68 -10 c-8 -3 -34 -14 -57 -24 -24 -10
-43 -16 -43 -14 0 9 76 44 95 44 14 0 15 -2 5 -6z m527 -39 c-3 -3 -12 -4 -19
-1 -8 3 -5 6 6 6 11 1 17 -2 13 -5z m-1730 -18 c0 -8 -6 -12 -15 -9 -11 5 -11
7 0 14 7 5 13 9 14 9 0 0 1 -6 1 -14z m-130 -12 c-3 -3 -12 -4 -19 -1 -8 3 -5
6 6 6 11 1 17 -2 13 -5z m634 -55 c70 -47 73 -57 53 -167 -10 -53 -18 -98 -19
-99 0 -1 -21 4 -45 12 -29 9 -37 14 -22 14 22 1 22 2 6 25 -8 14 -29 28 -45
31 -25 6 -29 11 -26 33 3 15 -1 33 -7 41 -9 12 -8 12 11 3 26 -14 38 -1 24 26
-6 11 -7 22 -4 26 3 3 -3 6 -15 6 -14 0 -22 -6 -22 -16 0 -14 -3 -14 -15 -4
-12 10 -15 10 -15 -1 -1 -10 -4 -8 -11 4 -7 11 -18 16 -34 13 -37 -7 -50 -17
-34 -27 11 -7 9 -9 -6 -9 -15 0 -17 -2 -6 -9 8 -5 12 -19 9 -35 -4 -19 -1 -25
11 -24 9 1 24 0 35 0 15 -2 16 -5 6 -17 -7 -8 -15 -13 -19 -11 -4 3 -13 1 -21
-5 -11 -6 -8 -9 12 -9 15 0 30 -4 33 -10 3 -5 18 -11 33 -11 25 -2 25 -2 3 -6
-13 -3 -28 0 -34 6 -13 13 -28 15 -25 4 1 -5 -5 -19 -14 -33 -26 -40 -31 -105
-17 -206 7 -52 10 -96 7 -99 -3 -4 -22 1 -42 9 -19 8 -35 12 -35 8 3 -20 -2
-32 -11 -27 -6 4 -17 2 -24 -5 -8 -6 -25 -13 -37 -15 -21 -4 -18 1 17 33 34
32 40 44 40 77 0 22 6 54 14 71 11 25 11 35 -2 60 -8 16 -20 28 -28 26 -10 -2
-11 1 -3 10 14 18 17 122 4 113 -7 -3 -11 3 -11 14 0 12 -4 21 -10 21 -5 0
-10 -9 -10 -20 0 -18 -3 -19 -20 -8 -18 12 -19 13 -2 20 9 3 11 7 5 7 -7 1
-13 9 -13 19 0 13 2 14 9 4 6 -10 10 -10 21 3 7 8 9 15 6 15 -4 0 -1 6 6 14 9
10 18 11 32 4 13 -7 16 -7 11 2 -4 7 1 14 15 17 12 3 19 11 16 19 -3 8 2 11
15 9 11 -2 19 2 19 9 0 9 9 12 24 9 18 -4 26 0 31 17 6 19 12 21 41 17 21 -4
32 -2 28 4 -3 5 -1 16 6 24 14 17 51 7 101 -26z m779 17 c0 -8 -5 -18 -10 -21
-6 -4 -8 -11 -5 -16 3 -5 17 -1 31 8 22 14 27 14 35 2 5 -8 4 -15 -1 -17 -11
-4 -3 -51 11 -66 16 -17 9 -27 -10 -16 -11 5 -24 10 -29 10 -12 0 -21 -69 -10
-76 5 -3 4 -12 -2 -19 -9 -11 -5 -16 21 -23 31 -8 28 -9 -46 -24 -44 -9 -88
-19 -97 -23 -15 -6 -18 -2 -18 23 0 17 5 32 11 34 7 2 13 19 15 37 2 18 0 30
-5 26 -5 -3 -12 -1 -16 5 -4 6 -11 8 -16 5 -5 -4 -9 3 -9 14 0 12 5 20 11 19
6 -2 12 6 14 17 1 11 5 31 9 44 6 18 10 21 17 10 7 -11 9 -10 9 5 0 11 3 16 6
13 4 -4 15 3 25 15 11 11 19 17 19 13 0 -5 5 -4 12 3 16 16 28 15 28 -2z m148
-64 c2 -7 -6 -12 -20 -11 -12 0 -17 3 -10 6 6 2 9 9 6 15 -4 6 -1 9 6 6 8 -2
16 -10 18 -16z m56 -33 c-3 -5 -1 -9 4 -9 6 0 8 -9 5 -20 -4 -14 0 -20 10 -20
8 0 17 4 19 9 2 5 9 3 16 -5 7 -8 8 -14 2 -14 -5 0 -10 -9 -10 -19 0 -11 -5
-23 -12 -27 -6 -4 -8 -3 -5 2 3 6 -3 11 -14 11 -10 1 -19 -2 -19 -8 0 -8 17
-13 47 -12 18 1 4 -23 -20 -34 l-22 -10 25 -14 c14 -7 29 -13 34 -14 5 0 11
-7 13 -15 4 -13 3 -13 -6 0 -10 13 -11 13 -11 0 0 -13 -1 -13 -10 0 -8 13 -10
13 -10 -2 0 -11 -5 -15 -14 -12 -34 13 -19 -78 19 -109 7 -6 6 -10 -1 -13 -7
-3 -10 -14 -7 -24 4 -14 0 -20 -12 -20 -13 0 -16 -6 -13 -25 3 -14 1 -25 -4
-25 -5 0 -6 -9 -3 -21 6 -18 3 -20 -22 -19 -53 4 -57 2 -42 -17 13 -15 12 -15
-9 -4 -22 12 -23 16 -15 64 4 29 8 96 8 149 0 82 2 93 12 75 12 -21 13 -21 8
7 -5 31 -22 48 -40 39 -5 -4 -7 -3 -3 1 3 4 2 23 -3 41 -8 29 -6 42 16 82 14
26 24 41 22 33 -2 -8 3 -20 11 -26 17 -12 52 -7 52 8 0 5 -5 6 -12 2 -8 -5 -9
-2 -5 10 5 14 3 17 -8 12 -9 -3 -15 0 -15 9 0 12 5 12 25 3 13 -6 22 -15 19
-19z m376 -19 c0 -22 -4 -40 -10 -40 -5 0 -10 18 -10 40 0 22 5 40 10 40 6 0
10 -18 10 -40z m-715 10 c3 -6 -1 -7 -9 -4 -18 7 -21 14 -7 14 6 0 13 -4 16
-10z m-972 -140 c6 -23 -8 -27 -20 -6 -4 7 -15 16 -23 19 -9 3 -4 6 11 6 19 1
28 -5 32 -19z m264 -6 c-3 -3 -12 -4 -19 -1 -8 3 -5 6 6 6 11 1 17 -2 13 -5z
m247 -70 c23 -9 20 -34 -4 -34 -11 0 -20 2 -20 4 0 2 -3 11 -6 20 -6 17 4 20
30 10z m356 -4 c0 -5 -6 -10 -12 -10 -7 -1 -29 -15 -48 -31 l-35 -31 54 6 c30
4 61 11 68 18 10 8 13 7 13 -6 0 -9 -18 -27 -41 -41 -22 -15 -38 -31 -36 -38
4 -12 11 -12 82 -1 39 6 40 6 23 -13 -10 -11 -18 -23 -18 -27 0 -4 -9 -19 -19
-32 -13 -16 -21 -20 -24 -12 -8 23 -40 -18 -39 -51 0 -24 -4 -31 -17 -31 -20
0 -44 -23 -35 -33 3 -3 -1 -16 -10 -28 l-16 -23 -6 32 c-8 39 -15 45 -46 33
-16 -6 -34 -5 -56 5 -32 13 -33 13 -38 -16 -6 -25 -9 -27 -25 -17 -10 6 -17
13 -15 14 2 2 -17 24 -41 49 -23 25 -43 55 -43 65 0 10 -7 19 -15 19 -8 0 -15
7 -15 15 0 8 -4 15 -9 15 -5 0 -11 9 -14 20 -7 27 3 25 49 -8 43 -31 104 -41
104 -16 0 8 -7 14 -15 14 -8 0 -15 4 -15 10 0 10 -90 85 -112 93 -7 2 -10 8
-6 12 5 5 16 2 25 -6 46 -39 101 -48 143 -24 22 13 23 14 5 15 -24 0 -54 40
-31 40 25 0 67 -23 63 -34 -3 -6 2 -19 11 -28 14 -17 16 -16 44 3 21 15 27 26
23 40 -5 16 -1 19 22 19 15 0 48 7 73 14 25 8 46 15 48 15 1 1 2 -3 2 -9z
m136 -173 c-13 -25 -33 -57 -44 -71 l-19 -25 -11 22 c-9 19 -3 28 42 73 28 29
52 51 53 50 1 -1 -8 -23 -21 -49z m74 -11 c0 -2 -7 -9 -15 -16 -13 -11 -14
-10 -9 4 5 14 24 23 24 12z m-762 -41 c6 -13 24 -31 40 -39 21 -11 30 -23 30
-41 0 -14 -4 -25 -9 -25 -5 0 -9 -11 -9 -25 0 -16 6 -25 15 -25 21 0 19 -30
-6 -86 -11 -27 -18 -57 -16 -69 3 -11 -1 -36 -7 -55 -12 -32 -13 -33 -20 -13
-4 12 -2 31 3 42 14 24 14 131 2 131 -6 0 -7 15 -4 34 3 19 1 36 -6 40 -6 4
-11 24 -11 44 -1 20 -7 54 -14 75 -15 41 -6 51 12 12z m132 -17 c11 -12 20
-30 20 -40 0 -10 6 -18 14 -18 22 0 35 -23 29 -53 -4 -23 -8 -25 -20 -15 -11
9 -16 9 -23 -1 -11 -19 -25 -7 -49 42 -32 67 -36 94 -14 100 10 3 19 5 20 6 1
0 11 -9 23 -21z m600 -20 c-9 -30 -15 -36 -35 -34 -19 1 -25 7 -25 25 0 19 3
21 14 12 12 -10 18 -7 32 14 22 33 26 28 14 -17z m58 -17 c1 -16 -2 -32 -8
-36 -5 -3 -10 -18 -10 -33 0 -19 -3 -23 -11 -15 -8 8 -8 21 1 50 7 21 14 44
16 51 5 20 10 14 12 -17z m-1018 16 c0 -2 -15 -13 -32 -26 l-33 -22 28 25 c26
24 37 31 37 23z m845 -50 c-3 -18 -9 -46 -12 -64 -4 -23 -10 -31 -24 -30 -25
2 -39 52 -26 92 15 47 26 56 49 44 16 -9 19 -17 13 -42z m-652 -2 c8 -20 -5
-95 -15 -89 -5 3 -6 18 -3 33 3 15 1 39 -4 54 -8 21 -7 25 4 21 7 -3 16 -11
18 -19z m737 -42 c-1 -22 -25 -55 -33 -46 -9 8 -9 48 0 56 13 13 33 7 33 -10z
m-520 -68 c0 -18 -5 -25 -18 -25 -28 0 -32 10 -14 30 24 25 32 24 32 -5z m387
-1 c-3 -4 0 -16 8 -28 21 -29 19 -46 -6 -46 -14 0 -19 5 -16 14 3 7 1 18 -5
24 -8 8 -8 16 2 27 7 8 15 15 18 15 3 0 2 -3 -1 -6z m-1430 -10 c-3 -3 -12 -4
-19 -1 -8 3 -5 6 6 6 11 1 17 -2 13 -5z m-20 -30 c-3 -3 -12 -4 -19 -1 -8 3
-5 6 6 6 11 1 17 -2 13 -5z m2453 -54 c0 -5 -7 -10 -15 -10 -8 0 -15 5 -15 10
0 6 7 10 15 10 8 0 15 -4 15 -10z m-2447 -7 c-7 -2 -21 -2 -30 0 -10 3 -4 5
12 5 17 0 24 -2 18 -5z m1024 -13 c14 0 14 -2 0 -18 -10 -10 -17 -25 -17 -33
-1 -12 -2 -11 -9 1 -5 8 -7 29 -3 45 3 17 7 24 9 18 3 -7 12 -13 20 -13z
m-260 -22 c-3 -7 -5 -2 -5 12 0 14 2 19 5 13 2 -7 2 -19 0 -25z m-61 -8 c0
-11 -4 -20 -8 -20 -10 0 -11 24 -1 33 9 9 9 10 9 -13z m874 -34 c0 -3 -4 -8
-10 -11 -5 -3 -10 -1 -10 4 0 6 5 11 10 11 6 0 10 -2 10 -4z m-220 -16 c0 -5
-4 -10 -10 -10 -5 0 -10 5 -10 10 0 6 5 10 10 10 6 0 10 -4 10 -10z m137 -4
c-3 -7 0 -19 6 -25 8 -8 7 -11 -3 -12 -8 0 -5 -4 7 -9 12 -5 25 -22 29 -37 4
-15 12 -31 18 -35 8 -5 7 -8 -2 -8 -7 0 -20 15 -29 34 -9 19 -25 37 -35 40
-11 2 -17 9 -13 15 3 6 -1 11 -11 11 -16 0 -16 2 2 19 22 23 38 27 31 7z
m-367 -22 c0 -8 -4 -14 -9 -14 -6 0 -9 9 -8 19 1 22 17 18 17 -5z m470 -3 c5
-11 10 -26 9 -33 0 -7 -5 -3 -11 10 -6 12 -15 22 -20 22 -4 0 -8 5 -8 10 0 17
19 11 30 -9z m74 -26 c7 -34 -7 -15 -19 25 -5 16 -4 22 3 15 5 -5 12 -23 16
-40z m-875 -9 c-9 -8 -10 -7 -5 7 3 10 7 24 7 30 1 7 3 4 6 -7 3 -10 -1 -23
-8 -30z m58 -33 c-13 -21 -27 -47 -30 -57 -4 -10 -10 -16 -13 -13 -3 3 3 22
13 44 28 56 47 85 51 74 2 -5 -8 -27 -21 -48z m85 -8 c-9 -19 -20 -35 -25 -35
-5 0 -7 3 -5 8 23 47 32 62 38 62 4 0 0 -16 -8 -35z m473 15 c24 -1 55 -25 80
-63 25 -38 12 -45 -25 -13 -18 14 -42 29 -55 32 -14 3 -27 15 -30 25 -4 10
-11 19 -16 19 -6 0 -7 5 -3 11 4 8 9 8 17 0 6 -6 20 -11 32 -11z m-632 -10
c-3 -12 -8 -19 -11 -16 -5 6 5 36 12 36 2 0 2 -9 -1 -20z m265 -17 c-2 -20
-10 -29 -32 -35 -17 -4 -32 -6 -33 -4 -6 6 48 66 59 66 5 0 8 -12 6 -27z m661
-33 c0 -9 -6 -4 -14 10 -19 33 -19 49 0 24 8 -10 14 -26 14 -34z m-59 10 c6
-11 7 -20 2 -20 -6 0 -12 9 -15 20 -3 11 -3 20 -1 20 2 0 8 -9 14 -20z m-742
-22 c-2 -6 -14 -18 -27 -26 -22 -15 -22 -15 -10 11 12 26 45 39 37 15z m243
-8 c-8 -4 -21 -5 -30 -2 -12 5 -10 8 9 12 29 8 40 3 21 -10z m209 0 c0 -5 6
-7 14 -4 13 5 62 -33 54 -41 -10 -10 -49 9 -44 21 6 16 -6 18 -20 4 -7 -7 -16
-4 -29 10 -18 19 -18 20 3 20 12 0 22 -4 22 -10z m-392 -24 c-10 -7 -18 -17
-18 -22 0 -13 -70 -67 -77 -60 -10 9 87 95 107 95 3 0 -3 -6 -12 -13z m92 -4
c0 -11 -43 -62 -53 -62 -15 0 -6 20 20 45 31 28 33 29 33 17z m90 -61 c0 -5
-8 -15 -17 -22 -14 -12 -16 -12 -8 0 6 11 5 12 -6 5 -22 -14 -38 -13 -32 1 7
20 63 33 63 16z m207 -7 c-3 -3 -12 -4 -19 -1 -8 3 -5 6 6 6 11 1 17 -2 13 -5z
m536 -34 c-3 -12 -8 -19 -11 -16 -5 6 5 36 12 36 2 0 2 -9 -1 -20z m-1566
-242 c-3 -7 -5 -2 -5 12 0 14 2 19 5 13 2 -7 2 -19 0 -25z m817 -323 c24 -8
62 -16 85 -17 23 -1 38 -4 35 -7 -8 -9 -153 -8 -148 1 3 4 -8 14 -23 22 -37
20 -8 21 51 1z m172 -32 c-3 -10 -17 -23 -30 -29 -21 -10 -23 -9 -18 5 7 19
43 53 50 47 2 -3 1 -13 -2 -23z"/>
<path d="M2106 2947 c3 -10 9 -15 12 -12 3 3 0 11 -7 18 -10 9 -11 8 -5 -6z"/>
<path d="M1916 2893 c-6 -14 -5 -15 5 -6 7 7 10 15 7 18 -3 3 -9 -2 -12 -12z"/>
<path d="M2564 2773 c-12 -27 -12 -53 -1 -60 6 -3 7 -1 3 6 -4 6 -1 14 8 17 8
3 13 14 11 26 -6 29 -11 32 -21 11z"/>
<path d="M2995 2929 c-11 -17 -2 -18 25 -4 24 14 24 14 3 15 -12 0 -25 -5 -28
-11z"/>
<path d="M3061 2904 c0 -11 3 -14 6 -6 3 7 2 16 -1 19 -3 4 -6 -2 -5 -13z"/>
<path d="M3200 2830 c-8 -5 -12 -11 -10 -13 69 -53 76 -56 76 -28 0 11 -3 19
-6 19 -17 -1 -49 16 -44 23 7 11 3 11 -16 -1z"/>
<path d="M3430 2650 c0 -5 5 -10 11 -10 5 0 7 5 4 10 -3 6 -8 10 -11 10 -2 0
-4 -4 -4 -10z"/>
<path d="M1835 2640 c-3 -5 3 -10 14 -10 12 0 21 5 21 10 0 6 -6 10 -14 10 -8
0 -18 -4 -21 -10z"/>
<path d="M2185 2640 c-3 -5 -1 -10 4 -10 6 0 11 5 11 10 0 6 -2 10 -4 10 -3 0
-8 -4 -11 -10z"/>
<path d="M2907 2683 c-7 -37 -4 -38 17 -3 14 25 15 30 3 30 -8 0 -17 -12 -20
-27z"/>
<path d="M2867 2554 c4 -10 13 -14 27 -10 11 3 28 6 36 7 17 1 -27 17 -52 18
-12 1 -15 -4 -11 -15z"/>
<path d="M3055 2649 c-4 -6 -5 -12 -2 -15 2 -3 7 2 10 11 7 17 1 20 -8 4z"/>
<path d="M3075 2640 c-3 -5 1 -10 10 -10 9 0 13 5 10 10 -3 6 -8 10 -10 10 -2
0 -7 -4 -10 -10z"/>
</g>
</svg>
